<?xml version="1.0" standalone="no"?>
<!DOCTYPE svg PUBLIC "-//W3C//DTD SVG 20010904//EN"
 "http://www.w3.org/TR/2001/REC-SVG-20010904/DTD/svg10.dtd">
<svg version="1.0" xmlns="http://www.w3.org/2000/svg"
 width="331.000000pt" height="331.000000pt" viewBox="0 0 331.000000 331.000000"
 preserveAspectRatio="xMidYMid meet">
<metadata>
Created by potrace 1.11, written by Peter Selinger 2001-2013
</metadata>
<g transform="translate(0.000000,331.000000) scale(0.100000,-0.100000)"
fill="#000000" stroke="none">
<path d="M1470 2944 c-357 -45 -657 -185 -887 -412 -166 -165 -280 -346 -351
-559 -51 -152 -66 -249 -66 -428 0 -179 15 -276 66 -428 71 -213 185 -394 351
-559 206 -203 457 -332 775 -395 121 -24 393 -24 514 0 318 63 569 192 775
395 166 165 280 346 351 559 51 152 66 249 66 428 0 179 -15 276 -66 428 -71
213 -185 394 -351 559 -204 202 -460 333 -769 393 -81 16 -337 28 -408 19z
m135 -174 c26 0 74 -51 81 -85 5 -30 11 -34 52 -45 71 -18 174 -76 240 -135
113 -102 186 -249 199 -399 6 -73 7 -76 31 -76 23 0 24 -2 20 -50 -3 -28 -13
-59 -23 -70 -18 -20 -32 -20 -635 -20 -603 0 -617 0 -635 20 -10 11 -20 42
-23 70 -4 48 -3 50 20 50 24 0 25 3 31 76 13 150 86 297 199 399 66 59 169
117 240 135 41 11 47 16 52 44 10 52 81 103 124 90 8 -2 20 -4 27 -4z m584
-1090 c20 -91 14 -159 -16 -202 l-26 -39 11 -232 c10 -208 9 -234 -5 -249 -22
-24 -49 -23 -67 4 -13 19 -16 60 -16 249 l0 226 -31 39 c-31 39 -31 40 -27
135 3 53 8 101 12 107 4 8 36 12 81 12 l73 0 11 -50z m-1024 -155 c0 -27 -3
-30 -30 -30 -21 0 -31 5 -33 18 -6 33 6 49 35 45 24 -3 28 -8 28 -33z m-251
11 c45 -19 92 -69 107 -113 18 -56 7 -145 -23 -191 -42 -63 -93 -82 -221 -82
l-107 0 0 200 0 200 105 0 c68 0 118 -5 139 -14z m558 -133 c21 -22 23 -36 27
-139 l3 -114 -31 0 -31 0 0 104 c0 82 -3 108 -16 120 -20 20 -63 20 -92 0 -20
-14 -22 -23 -22 -120 l0 -104 -30 0 -30 0 0 140 0 140 24 0 c16 0 27 -7 31
-21 6 -19 8 -19 25 -4 42 38 105 37 142 -2z m300 15 c22 -11 45 -54 49 -93 l4
-30 -100 -5 c-100 -5 -100 -5 -97 -30 6 -41 40 -70 84 -70 22 0 49 5 60 11 16
8 24 8 35 -4 14 -13 13 -17 -9 -31 -66 -43 -171 -24 -209 38 -23 38 -25 125
-4 166 30 59 121 82 187 48z m-612 -128 l0 -140 -30 0 -30 0 0 140 0 140 30 0
30 0 0 -140z m1312 103 c21 -22 23 -36 27 -139 l3 -114 -31 0 -31 0 0 104 c0
82 -3 108 -16 120 -20 20 -63 20 -92 0 -20 -14 -22 -23 -22 -120 l0 -104 -30
0 -30 0 0 140 0 140 24 0 c16 0 27 -7 31 -21 6 -19 8 -19 25 -4 42 38 105 37
142 -2z m-1757 -559 l28 -47 26 47 c38 67 51 60 51 -24 0 -40 -4 -70 -10 -70
-5 0 -10 24 -10 53 l-1 52 -25 -42 c-14 -24 -29 -43 -33 -43 -3 0 -16 17 -28
38 l-22 37 -1 -47 c0 -27 -4 -48 -10 -48 -6 0 -10 30 -10 70 0 39 4 70 9 70 5
0 21 -21 36 -46z m365 -24 c0 -40 -4 -70 -10 -70 -6 0 -10 30 -10 70 0 40 4
70 10 70 6 0 10 -30 10 -70z m168 54 c16 -11 22 -25 22 -54 0 -47 -27 -70 -82
-70 l-38 0 0 70 0 70 38 0 c21 0 48 -7 60 -16z m182 -54 c0 -40 -4 -70 -10
-70 -6 0 -10 30 -10 70 0 40 4 70 10 70 6 0 10 -30 10 -70z m50 60 c0 -5 -7
-10 -15 -10 -8 0 -15 5 -15 10 0 6 7 10 15 10 8 0 15 -4 15 -10z m550 -10 c16
-30 -4 -60 -40 -60 -27 0 -30 -3 -30 -30 0 -16 -4 -30 -10 -30 -6 0 -10 30
-10 70 l0 70 40 0 c29 0 42 -5 50 -20z m-1112 -32 c23 -23 13 -38 -23 -38 -24
0 -35 -5 -35 -15 0 -11 11 -15 36 -15 21 0 33 -4 29 -10 -9 -14 -58 -13 -73 2
-15 15 -15 61 0 76 7 7 21 12 33 12 12 0 26 -5 33 -12z m110 -40 l3 -46 -38 1
c-31 2 -39 6 -41 25 -3 18 2 23 27 28 41 8 40 24 -1 24 -25 0 -30 3 -18 10 8
6 26 9 40 8 22 -3 25 -8 28 -50z m340 40 c23 -23 13 -38 -23 -38 -24 0 -35 -5
-35 -15 0 -11 11 -15 36 -15 21 0 33 -4 29 -10 -9 -14 -58 -13 -73 2 -7 7 -12
24 -12 38 0 31 17 50 45 50 12 0 26 -5 33 -12z m112 -38 c0 -27 -4 -50 -10
-50 -5 0 -10 23 -10 50 0 28 5 50 10 50 6 0 10 -22 10 -50z m43 20 c6 -16 14
-30 18 -30 4 0 12 14 18 30 5 17 15 30 20 30 14 0 14 -1 -9 -55 -11 -26 -25
-45 -31 -43 -16 5 -52 98 -38 98 6 0 16 -13 22 -30z m155 18 c23 -23 13 -38
-23 -38 -24 0 -35 -5 -35 -15 0 -11 11 -15 36 -15 21 0 33 -4 29 -10 -9 -14
-58 -13 -73 2 -7 7 -12 24 -12 38 0 31 17 50 45 50 12 0 26 -5 33 -12z m70 -4
c-22 -12 -28 -22 -28 -49 0 -19 -4 -35 -10 -35 -5 0 -10 22 -10 48 l0 49 38 1
37 1 -27 -15z m68 -16 l17 -33 14 33 c7 17 18 32 24 32 6 0 9 -4 7 -8 -1 -4
-14 -33 -27 -65 -24 -55 -49 -79 -38 -36 3 11 -3 41 -13 65 -22 51 -9 60 16
12z m282 16 c-22 -12 -28 -22 -28 -49 0 -19 -4 -35 -10 -35 -5 0 -10 22 -10
48 l0 49 38 1 37 1 -27 -15z m119 -14 c10 -20 10 -29 -1 -45 -16 -24 -51 -31
-72 -15 -17 15 -18 62 -2 78 20 20 61 10 75 -18z m113 26 c0 -23 -23 -55 -42
-59 -20 -4 -20 -4 5 -6 54 -2 42 -61 -13 -61 -36 0 -53 21 -42 51 5 13 7 30 5
37 -10 27 6 42 47 42 22 0 40 -2 40 -4z m58 -12 c-22 -12 -28 -22 -28 -49 0
-19 -4 -35 -10 -35 -5 0 -10 22 -10 48 l0 49 38 1 37 1 -27 -15z m110 -36 l3
-46 -38 1 c-31 2 -39 6 -41 25 -3 18 2 23 27 28 41 8 40 24 -1 24 -25 0 -30 3
-18 10 8 6 26 9 40 8 22 -3 25 -8 28 -50z m160 0 c2 -29 -1 -48 -7 -48 -6 0
-11 18 -11 41 0 33 -3 40 -17 37 -13 -2 -19 -14 -21 -41 -4 -50 -22 -47 -22 4
0 33 -3 40 -17 37 -13 -2 -19 -14 -21 -41 -5 -54 -22 -45 -22 12 l0 48 68 -1
67 -1 3 -47z"/>
<path d="M1550 2723 c-24 -9 -50 -35 -50 -50 0 -10 18 -13 70 -13 52 0 70 3
70 13 0 29 -59 61 -90 50z"/>
<path d="M1494 2610 c-268 -41 -484 -280 -484 -535 l0 -45 560 0 560 0 0 45
c0 228 -179 454 -411 518 -71 20 -161 27 -225 17z"/>
<path d="M962 1963 c3 -17 40 -18 608 -18 568 0 605 1 608 18 3 16 -31 17
-608 17 -577 0 -611 -1 -608 -17z"/>
<path d="M2038 1715 c-4 -6 -10 -49 -13 -95 -7 -84 -7 -85 27 -135 l33 -50 5
-235 c5 -235 5 -235 28 -238 14 -2 25 3 29 13 3 10 1 116 -5 237 l-12 220 32
57 31 56 -13 88 c-16 114 -35 117 -26 3 4 -53 2 -87 -4 -91 -6 -4 -10 14 -10
47 0 68 -10 128 -21 128 -5 0 -10 -42 -10 -92 -1 -80 -3 -87 -10 -48 -4 25 -8
66 -8 93 -1 26 -5 47 -11 47 -6 0 -10 -37 -10 -92 0 -117 -18 -107 -22 12 -2
47 -6 80 -10 75z"/>
<path d="M740 1350 l0 -150 66 0 c113 0 154 41 154 155 0 65 -1 69 -39 106
-38 38 -40 39 -110 39 l-71 0 0 -150z"/>
<path d="M1680 1393 c-26 -10 -50 -36 -50 -55 0 -16 9 -18 70 -18 62 0 70 2
70 19 0 20 -24 51 -40 51 -5 0 -14 2 -22 4 -7 3 -20 2 -28 -1z"/>
<path d="M1170 810 l0 -62 27 7 c40 10 53 24 53 55 0 31 -13 45 -53 55 l-27 7
0 -62z"/>
<path d="M1960 841 c0 -31 6 -36 34 -25 17 6 23 44 7 44 -5 0 -16 3 -25 6 -13
5 -16 -1 -16 -25z"/>
<path d="M860 810 c0 -5 11 -10 25 -10 14 0 25 5 25 10 0 6 -11 10 -25 10 -14
0 -25 -4 -25 -10z"/>
<path d="M988 783 c-24 -6 -23 -23 2 -23 11 0 20 7 20 15 0 8 -1 14 -2 14 -2
-1 -11 -3 -20 -6z"/>
<path d="M1310 810 c0 -5 11 -10 25 -10 14 0 25 5 25 10 0 6 -11 10 -25 10
-14 0 -25 -4 -25 -10z"/>
<path d="M1620 810 c0 -5 11 -10 25 -10 14 0 25 5 25 10 0 6 -11 10 -25 10
-14 0 -25 -4 -25 -10z"/>
<path d="M2150 790 c0 -25 4 -30 25 -30 21 0 25 5 25 30 0 25 -4 30 -25 30
-21 0 -25 -5 -25 -30z"/>
<path d="M2263 808 c2 -7 10 -13 17 -13 7 0 15 6 18 13 2 7 -5 12 -18 12 -13
0 -20 -5 -17 -12z"/>
<path d="M2257 753 c-15 -14 -6 -23 23 -23 32 0 40 14 14 24 -20 8 -29 8 -37
-1z"/>
<path d="M2458 783 c-24 -6 -23 -23 2 -23 11 0 20 7 20 15 0 8 -1 14 -2 14 -2
-1 -11 -3 -20 -6z"/>
</g>
</svg>
